<svg xmlns="http://www.w3.org/2000/svg" width="512" height="512" viewBox="0 0 512 512">
<g>
<path d="M 0.16 478.25 L 0.00 512.00 L 0.00 0.00 L 0.19 208.25 C0.29,320.77 0.51,410.59 0.69,410.59 C0.69,410.59 0.70,410.56 0.70,410.50 C0.88,407.20 1.97,392.80 3.12,378.50 C4.87,356.89 5.26,343.13 5.44,297.00 C5.61,252.01 5.97,238.79 7.35,227.21 C15.72,156.91 36.75,107.35 75.15,67.49 C92.07,49.93 109.42,37.16 131.18,26.28 C142.97,20.38 150.58,18.63 154.74,20.86 C156.35,21.72 158.49,21.31 165.13,18.87 C212.70,1.37 265.27,-0.53 313.97,13.49 C358.84,26.41 410.35,59.57 443.98,97.20 C481.79,139.50 503.74,185.06 510.40,235.00 C511.65,244.39 511.81,232.54 511.90,122.75 L 512.00 0.00 L 512.00 512.00 L 511.83 394.75 C511.74,331.61 511.51,281.43 511.31,281.43 C511.31,281.43 511.30,281.45 511.30,281.50 C510.58,289.30 506.87,308.59 504.37,317.48 C496.67,344.86 480.17,375.63 463.68,393.35 C459.35,398.01 457.84,399.00 455.13,399.00 C451.39,399.00 446.00,394.43 446.00,391.25 C446.00,390.20 450.41,380.60 455.80,369.92 C471.62,338.55 478.87,313.16 480.90,282.00 C485.70,208.06 451.92,132.13 390.81,79.53 C347.89,42.59 296.21,22.72 243.00,22.71 C220.89,22.71 204.25,25.01 185.00,30.73 C169.61,35.30 163.00,38.08 163.00,39.98 C163.00,43.86 158.51,47.24 144.43,53.97 C127.48,62.06 115.76,69.49 103.68,79.83 C54.65,121.76 29.17,191.58 28.98,284.50 C28.95,296.05 28.52,312.48 28.02,321.00 C27.52,329.52 26.62,354.50 26.03,376.50 C25.44,398.50 24.23,424.20 23.35,433.62 C20.31,466.02 22.63,476.95 34.00,483.83 C39.06,486.89 40.03,487.12 46.00,486.73 C55.11,486.13 61.19,482.84 76.00,470.48 C101.02,449.62 110.93,447.80 143.00,458.19 C149.88,460.42 161.12,464.48 168.00,467.22 C206.39,482.49 235.63,490.01 256.50,489.97 C267.64,489.95 291.53,487.50 303.66,485.13 C324.70,481.02 345.61,472.41 364.41,460.13 C376.53,452.20 380.50,451.25 385.37,455.07 C387.58,456.82 388.00,457.94 388.00,462.12 C388.00,468.16 386.37,471.53 381.19,476.21 C374.12,482.60 369.84,484.59 338.78,495.96 C316.83,503.99 292.96,508.00 267.14,508.00 C227.63,507.99 176.18,495.61 137.00,476.68 C116.83,466.93 108.73,468.76 85.45,488.34 C74.47,497.58 64.96,503.81 58.21,506.20 C49.84,509.16 35.90,508.41 27.26,504.53 C11.24,497.35 3.79,481.51 0.65,448.00 C0.47,446.08 0.25,459.69 0.16,478.25 ZM 308.11 343.12 C300.99,345.87 283.02,346.67 275.72,344.57 C260.58,340.21 245.96,329.98 227.72,310.96 C213.09,295.70 208.62,293.03 197.73,293.01 C193.54,293.00 188.82,293.75 185.39,294.96 C178.37,297.42 163.62,307.26 149.85,318.67 C124.40,339.75 119.43,343.00 112.61,343.00 C110.04,343.00 106.49,342.37 104.72,341.60 C97.76,338.57 92.00,330.22 92.00,323.16 C92.00,318.19 93.49,314.65 102.58,298.00 C106.63,290.58 113.61,275.50 118.08,264.50 C135.84,220.79 142.49,208.89 158.44,192.20 C172.17,177.84 180.86,174.34 200.63,175.21 C213.66,175.78 222.27,178.47 234.23,185.70 C242.51,190.70 247.27,194.54 263.67,209.41 C279.72,223.96 284.26,226.01 292.71,222.48 C298.94,219.87 304.88,214.14 316.54,199.47 C333.33,178.35 351.29,163.20 365.73,157.99 C377.70,153.68 387.89,156.86 393.69,166.73 C396.19,170.97 396.48,172.38 396.35,179.50 C395.93,200.91 383.67,234.27 364.93,265.00 C362.08,269.67 356.87,279.58 353.37,287.00 C335.41,325.01 326.52,336.03 308.11,343.12 ZM 276.14 323.52 C285.15,327.07 296.19,326.66 303.85,322.48 C314.38,316.75 321.62,306.18 331.34,282.35 C333.84,276.22 338.91,265.87 342.62,259.35 C354.14,239.08 364.13,215.06 369.06,195.75 C370.18,191.36 370.97,187.12 370.80,186.33 C370.16,183.23 353.26,200.12 338.36,218.75 C317.52,244.81 303.10,254.93 286.73,254.98 C272.43,255.02 260.84,248.93 242.00,231.47 C221.77,212.72 212.73,207.09 199.32,204.90 C192.27,203.75 192.05,203.78 187.32,206.54 C181.42,209.99 172.19,218.63 166.54,226.00 C160.39,234.02 153.16,246.69 141.86,269.28 C130.49,292.00 124.94,301.33 116.15,312.47 C110.03,320.23 108.30,325.00 111.60,325.00 C113.76,325.00 117.22,322.50 133.00,309.52 C157.45,289.40 161.93,286.12 171.26,281.51 C185.67,274.40 197.40,272.59 209.91,275.54 C220.39,278.01 225.31,281.42 240.94,297.04 C256.28,312.37 265.57,319.35 276.14,323.52 Z" fill="rgb(37,55,110)" data-index="0" style="opacity: 1;"></path>
<path d="M 480.90 282.00 C479.28,306.93 474.31,328.17 464.28,351.73 L 464.89 349.50 L 462.69 352.43 C461.49,354.04 456.59,359.94 451.81,365.53 C421.07,401.45 372.17,430.52 319.72,444.05 C292.32,451.12 271.82,453.39 241.50,452.71 C217.11,452.16 204.44,450.51 185.16,445.38 C170.98,441.61 152.00,434.52 152.00,432.99 C152.00,431.68 138.32,425.99 132.68,424.95 C122.57,423.08 109.25,426.92 97.30,435.14 C90.47,439.84 78.51,451.51 64.65,467.00 C58.00,474.42 51.77,481.09 50.79,481.80 C49.81,482.52 48.58,483.92 48.05,484.91 C47.17,486.55 47.43,486.65 50.84,486.03 C51.34,485.94 51.83,485.83 52.32,485.71 C50.28,486.27 48.23,486.58 46.00,486.73 C40.03,487.12 39.06,486.89 34.00,483.83 C22.63,476.95 20.31,466.02 23.35,433.62 C24.23,424.20 25.44,398.50 26.03,376.50 C26.62,354.50 27.52,329.52 28.02,321.00 C28.52,312.48 28.95,296.05 28.98,284.50 C29.17,191.58 54.65,121.76 103.68,79.83 C115.76,69.49 127.48,62.06 144.43,53.97 C158.51,47.24 163.00,43.86 163.00,39.98 C163.00,38.08 169.61,35.30 185.00,30.73 C204.25,25.01 220.89,22.71 243.00,22.71 C296.21,22.72 347.89,42.59 390.81,79.53 C451.92,132.13 485.70,208.06 480.90,282.00 ZM 308.11 343.12 C326.52,336.03 335.41,325.01 353.37,287.00 C356.87,279.58 362.08,269.67 364.93,265.00 C383.67,234.27 395.93,200.91 396.35,179.50 C396.48,172.38 396.19,170.97 393.69,166.73 C387.89,156.86 377.70,153.68 365.73,157.99 C351.29,163.20 333.33,178.35 316.54,199.47 C304.88,214.14 298.94,219.87 292.71,222.48 C284.26,226.01 279.72,223.96 263.67,209.41 C247.27,194.54 242.51,190.70 234.23,185.70 C222.27,178.47 213.66,175.78 200.63,175.21 C180.86,174.34 172.17,177.84 158.44,192.20 C142.49,208.89 135.84,220.79 118.08,264.50 C113.61,275.50 106.63,290.58 102.58,298.00 C93.49,314.65 92.00,318.19 92.00,323.16 C92.00,330.22 97.76,338.57 104.72,341.60 C106.49,342.37 110.04,343.00 112.61,343.00 C119.43,343.00 124.40,339.75 149.85,318.67 C163.62,307.26 178.37,297.42 185.39,294.96 C188.82,293.75 193.54,293.00 197.73,293.01 C208.62,293.03 213.09,295.70 227.72,310.96 C245.96,329.98 260.58,340.21 275.72,344.57 C283.02,346.67 300.99,345.87 308.11,343.12 ZM 0.44 451.75 C0.51,448.72 0.58,447.28 0.65,448.00 C1.99,462.29 4.11,473.37 7.34,481.93 C5.11,476.17 3.36,469.31 2.01,461.17 ZM 0.63 407.40 C0.82,406.06 1.62,397.01 2.54,385.74 C1.62,397.37 0.85,407.76 0.70,410.50 C0.70,410.56 0.69,410.59 0.69,410.59 C0.67,410.59 0.65,409.50 0.63,407.40 ZM 446.00 391.21 C446.00,391.18 446.00,391.15 446.00,391.11 C446.00,390.22 448.45,384.73 451.83,377.94 C448.46,384.93 446.07,390.31 446.00,391.21 ZM 69.99 475.37 C71.82,473.93 73.81,472.30 76.00,470.48 C101.02,449.62 110.93,447.80 143.00,458.19 C110.93,447.80 101.02,449.62 76.00,470.48 C73.82,472.30 71.83,473.92 69.99,475.37 ZM 449.37 396.49 C451.15,397.94 453.33,399.00 455.13,399.00 C453.31,399.00 451.14,397.95 449.37,396.49 Z" fill="rgb(103,175,253)" data-index="1" style="opacity: 1;"></path>

<path d="M 276.14 323.52 C265.57,319.35 256.28,312.37 240.94,297.04 C225.31,281.42 220.39,278.01 209.91,275.54 C197.40,272.59 185.67,274.40 171.26,281.51 C161.93,286.12 157.45,289.40 133.00,309.52 C117.22,322.50 113.76,325.00 111.60,325.00 C108.30,325.00 110.03,320.23 116.15,312.47 C124.94,301.33 130.49,292.00 141.86,269.28 C153.16,246.69 160.39,234.02 166.54,226.00 C172.19,218.63 181.42,209.99 187.32,206.54 C192.05,203.78 192.27,203.75 199.32,204.90 C212.73,207.09 221.77,212.72 242.00,231.47 C260.84,248.93 272.43,255.02 286.73,254.98 C303.10,254.93 317.52,244.81 338.36,218.75 C353.26,200.12 370.16,183.23 370.80,186.33 C370.97,187.12 370.18,191.36 369.06,195.75 C364.13,215.06 354.14,239.08 342.62,259.35 C338.91,265.87 333.84,276.22 331.34,282.35 C321.62,306.18 314.38,316.75 303.85,322.48 C296.19,326.66 285.15,327.07 276.14,323.52 Z" fill="rgb(248,215,128)" data-index="3" style="opacity: 1;"></path>
</g>
</svg>